<svg width="11" height="9" viewBox="0 0 11 9" fill="none" xmlns="http://www.w3.org/2000/svg">
<path fill-rule="evenodd" clip-rule="evenodd" d="M-1.89588e-07 4.09487C-2.00666e-07 3.84142 0.20546 3.63596 0.458908 3.63596L8.70038 3.63596L5.84781 0.783499C5.66859 0.604288 5.66858 0.313723 5.84779 0.134505C6.027 -0.0447138 6.31757 -0.0447191 6.49679 0.134492L10.1328 3.77037C10.2641 3.90161 10.3033 4.099 10.2323 4.27048C10.1613 4.44197 9.99393 4.55378 9.80832 4.55378L0.458908 4.55378C0.20546 4.55378 -1.78509e-07 4.34832 -1.89588e-07 4.09487ZM5.84803 8.29772C5.66881 8.1185 5.66881 7.82794 5.84803 7.64872L7.32645 6.17031C7.50566 5.9911 7.79623 5.9911 7.97544 6.17032C8.15466 6.34953 8.15465 6.6401 7.97544 6.81931L6.49702 8.29772C6.31781 8.47693 6.02724 8.47693 5.84803 8.29772Z" fill="#20293A"/>
</svg>
