<svg width="11" height="9" viewBox="0 0 11 9" fill="none" xmlns="http://www.w3.org/2000/svg">
<path fill-rule="evenodd" clip-rule="evenodd" d="M10.2672 4.09487C10.2672 3.84142 10.0618 3.63596 9.80833 3.63596L1.56685 3.63596L4.41943 0.783499C4.59865 0.604288 4.59866 0.313723 4.41945 0.134505C4.24023 -0.0447142 3.94967 -0.044719 3.77045 0.134492L0.134433 3.77037C0.00318166 3.90161 -0.036084 4.099 0.0349457 4.27048C0.105975 4.44197 0.27331 4.55378 0.458924 4.55378L9.80833 4.55378C10.0618 4.55378 10.2672 4.34832 10.2672 4.09487ZM4.41921 8.29772C4.59842 8.1185 4.59842 7.82794 4.41921 7.64872L2.94079 6.17031C2.76158 5.9911 2.47101 5.9911 2.2918 6.17032C2.11258 6.34953 2.11258 6.6401 2.2918 6.81931L3.77022 8.29772C3.94943 8.47693 4.24 8.47693 4.41921 8.29772Z" fill="#20293A"/>
</svg>
