<svg width="11" height="11" viewBox="0 0 11 11" fill="none" xmlns="http://www.w3.org/2000/svg">
<path d="M8.83667 1.22222C8.8 1.76611 8.70833 2.29778 8.56167 2.805L9.295 3.53833C9.54556 2.805 9.70444 2.02889 9.75944 1.22222H8.83667ZM2.81111 8.56778C2.29167 8.71444 1.76 8.80611 1.22222 8.84278V9.75333C2.02889 9.69833 2.805 9.53944 3.54444 9.295L2.81111 8.56778ZM8.25 0H10.3889C10.725 0 11 0.275 11 0.611111C11 6.34944 6.34944 11 0.611112 11C0.275001 11 0 10.725 0 10.3889V8.25611C0 7.92 0.275001 7.645 0.611112 7.645C1.36889 7.645 2.10833 7.52278 2.79278 7.29667C2.85389 7.27222 2.92111 7.26611 2.98222 7.26611C3.14111 7.26611 3.29389 7.32722 3.41611 7.44333L4.76056 8.78778C6.49 7.90167 7.90778 6.49 8.78778 4.76056L7.44333 3.41611C7.27222 3.245 7.22333 3.00667 7.29056 2.79278C7.51667 2.10833 7.63889 1.375 7.63889 0.611111C7.63889 0.275 7.91389 0 8.25 0Z" fill="black"/>
</svg>
