<svg width="14" height="15" viewBox="0 0 14 15" fill="none" xmlns="http://www.w3.org/2000/svg">
<path d="M14 14.9996V9.50608C14 6.80618 13.4575 4.74376 10.5175 4.74376C9.10006 4.74376 8.15507 5.56873 7.77007 6.3562H7.73507V4.9875H4.9526V14.9996H7.85757V10.0311C7.85757 8.71861 8.08507 7.46241 9.59005 7.46241C11.0775 7.46241 11.095 8.94361 11.095 10.1061V14.9809H14V14.9996Z" fill="white"/>
<path d="M0.227653 4.98787H3.13262V15H0.227653V4.98787Z" fill="white"/>
<path d="M1.67998 0C0.752491 0 0 0.80622 0 1.79993C0 2.79365 0.752491 3.61862 1.67998 3.61862C2.60747 3.61862 3.35996 2.79365 3.35996 1.79993C3.35996 0.80622 2.60747 0 1.67998 0Z" fill="white"/>
</svg>
