<?xml version="1.0" encoding="UTF-8"?>
<svg id="Layer_2" data-name="Layer 2" xmlns="http://www.w3.org/2000/svg" xmlns:xlink="http://www.w3.org/1999/xlink" viewBox="0 0 312.17 122.35">
  <defs>
    <style>
      .cls-1 {
        fill: url(#linear-gradient);
      }

      .cls-1, .cls-2, .cls-3, .cls-4, .cls-5, .cls-6, .cls-7, .cls-8 {
        stroke-width: 0px;
      }

      .cls-2 {
        fill: url(#linear-gradient-6);
      }

      .cls-3 {
        fill: url(#linear-gradient-5);
      }

      .cls-4 {
        fill: #fff;
      }

      .cls-5 {
        fill: url(#linear-gradient-2);
      }

      .cls-6 {
        fill: #e2e2e2;
      }

      .cls-7 {
        fill: url(#linear-gradient-3);
      }

      .cls-8 {
        fill: url(#linear-gradient-4);
      }
    </style>
    <linearGradient id="linear-gradient" x1="91.95" y1="62.53" x2="128.13" y2="62.53" gradientUnits="userSpaceOnUse">
      <stop offset="0" stop-color="#b74c63"/>
      <stop offset=".46" stop-color="#db748a"/>
      <stop offset="1" stop-color="#fff"/>
    </linearGradient>
    <linearGradient id="linear-gradient-2" x1="93.02" y1="76.52" x2="62.67" y2="152.45" gradientUnits="userSpaceOnUse">
      <stop offset="0" stop-color="#b74c63"/>
      <stop offset=".46" stop-color="#db748a"/>
      <stop offset="1" stop-color="#736469"/>
    </linearGradient>
    <linearGradient id="linear-gradient-3" x1="127.4" y1="-10.87" x2="97.05" y2="65.06" gradientUnits="userSpaceOnUse">
      <stop offset=".11" stop-color="#b74c63"/>
      <stop offset=".54" stop-color="#db748a"/>
      <stop offset=".99" stop-color="#fff"/>
    </linearGradient>
    <linearGradient id="linear-gradient-4" x1="65.79" y1="123.83" x2="98.66" y2="48.96" gradientUnits="userSpaceOnUse">
      <stop offset="0" stop-color="#fff"/>
      <stop offset=".24" stop-color="#fff"/>
      <stop offset=".6" stop-color="#fff"/>
      <stop offset="1" stop-color="#fff"/>
    </linearGradient>
    <linearGradient id="linear-gradient-5" x1="148.1" y1="-2.59" x2="117.75" y2="73.34" xlink:href="#linear-gradient-2"/>
    <linearGradient id="linear-gradient-6" x1="128.02" y1="41.3" x2="71.75" y2="92.27" xlink:href="#linear-gradient-3"/>
  </defs>
  <g id="Layer_1-2" data-name="Layer 1">
    <g>
      <path class="cls-4" d="m22.38,81.57c-3.34,0-6.38-.5-9.1-1.5-2.73-1-5.08-2.45-7.06-4.34-1.98-1.89-3.49-4.18-4.55-6.85-1.06-2.67-1.59-5.68-1.59-9.02l-.08-3.34h10.52v4.09c0,3.62,1.09,6.42,3.26,8.39,2.17,1.98,5.07,2.96,8.69,2.96s6.69-.99,8.89-2.96c2.2-1.98,3.3-4.77,3.3-8.39v-28.98h-8.18v-9.6h18.62v37.83c0,3.34-.53,6.35-1.59,9.02-1.06,2.67-2.58,4.96-4.55,6.85-1.98,1.89-4.33,3.34-7.06,4.34-2.73,1-5.76,1.5-9.1,1.5h-.42Z"/>
      <path class="cls-4" d="m69.98,38.15c3.23,0,6.18.52,8.85,1.54,2.67,1.03,4.95,2.49,6.85,4.38,1.89,1.89,3.35,4.18,4.38,6.85,1.03,2.67,1.54,5.62,1.54,8.85v20.71h-10.02v-4.01c-1,1.28-2.55,2.39-4.63,3.34-2.09.95-4.66,1.42-7.72,1.42s-5.79-.52-8.35-1.54c-2.56-1.03-4.76-2.49-6.6-4.38-1.84-1.89-3.27-4.18-4.3-6.85-1.03-2.67-1.54-5.62-1.54-8.85s.51-6.17,1.54-8.81c1.03-2.64,2.49-4.9,4.38-6.76,1.89-1.86,4.16-3.31,6.81-4.34,2.64-1.03,5.58-1.54,8.81-1.54Zm11.61,21.55c0-3.9-1.04-6.93-3.13-9.1s-4.89-3.26-8.39-3.26-6.32,1.09-8.43,3.26c-2.12,2.17-3.17,5.21-3.17,9.1s1.06,6.93,3.17,9.1c2.12,2.17,4.93,3.26,8.43,3.26s6.31-1.09,8.39-3.26c2.09-2.17,3.13-5.21,3.13-9.1Z"/>
      <path class="cls-4" d="m130.28,26.62c0-1.5.53-2.8,1.59-3.88,1.06-1.09,2.37-1.63,3.93-1.63s2.87.54,3.93,1.63c1.06,1.09,1.59,2.38,1.59,3.88,0,1.62-.53,2.95-1.59,4.01-1.06,1.06-2.37,1.59-3.93,1.59s-2.87-.53-3.93-1.59c-1.06-1.06-1.59-2.39-1.59-4.01Zm.5,12.11h10.02v41.76h-10.02v-41.76Z"/>
      <path class="cls-4" d="m164.61,37.98c3.45,0,6.39.57,8.81,1.71,2.42,1.14,4.41,2.59,5.97,4.34,1.56,1.75,2.69,3.66,3.38,5.72.7,2.06,1.04,4.01,1.04,5.85v24.89h-10.02v-24.64c0-1.5-.25-2.78-.75-3.84-.5-1.06-1.17-1.95-2-2.67-.84-.72-1.81-1.25-2.92-1.59-1.11-.33-2.28-.5-3.51-.5s-2.39.17-3.51.5c-1.11.33-2.09.86-2.92,1.59-.84.72-1.5,1.62-2,2.67-.5,1.06-.75,2.34-.75,3.84v24.64h-10.02v-24.89c0-1.84.35-3.79,1.04-5.85.7-2.06,1.82-3.97,3.38-5.72,1.56-1.75,3.55-3.2,5.97-4.34,2.42-1.14,5.36-1.71,8.81-1.71Z"/>
      <path class="cls-4" d="m188.32,26.62c0-1.5.53-2.8,1.59-3.88,1.06-1.09,2.37-1.63,3.93-1.63s2.87.54,3.93,1.63c1.06,1.09,1.59,2.38,1.59,3.88,0,1.62-.53,2.95-1.59,4.01-1.06,1.06-2.37,1.59-3.93,1.59s-2.87-.53-3.93-1.59c-1.06-1.06-1.59-2.39-1.59-4.01Zm.5,12.11h10.02v41.76h-10.02v-41.76Z"/>
      <path class="cls-1" d="m101.23,15.47s-11.16,12.94,2.58,36.75c0,0,9.82,16.56,17.7,26.96,0,0,3.2,4,4.59,7.02,0,0-1.63-2.37-1.93-2.62,0,0,2.49,4.21,3.35,5.99,0,0-1.9-2.98-2.39-3.28,0,0,2.45,3.34,3.01,8.74,0,0-4.78-9.14-6.53-10.52,0,0,8.18,11.95,6.22,21.03,0,0-.04-5.07-1.02-6.34,0,0,.98,7.24-.33,10.39,0,0-.7-10.94-10.57-24.56,0,0-12.53-17.4-19.41-29.34,0,0-12.86-22.43,4.74-40.22Z"/>
      <path class="cls-5" d="m100.31,37.25s-2.4-20.9,26.82-32.02c0,0-5.78,9.57-10.69,21.43,0,0-12.88,32.8-13.62,34.88,0,0-14.48,51.31-32.14,54.96,0,0-14.94,3.31-10.43-8.59,0,0,5.64-18.89,42.45-38.03,0,0,29.81-15.58,30.43-28.22,0,0-3.27,7.16-10.63,12.8,0,0,10.68-9.77,10.43-19.26,0,0,.14.94-.72,3.05,0,0,.89-3.33-.25-5.4,0,0,.78,1.79-.13,4.29,0,0,.36-1.99-.02-2.45,0,0,.21,4.57-6.72,11.75,0,0,2.09-2.45,2.88-4.54,0,0-2.54,4.78-12.19,11.9,0,0-12.62,8.34-20.31,12.33,0,0-28.12,14.91-36.34,29.51,0,0-11.04,17.3,1.35,25.15,0,0,13.01,7.97,29.32-12.27,0,0,7.36-10.12,19.81-41.16l10.43-28.03s5.98-20.52,14.48-33.19c0,0,3.8-3.68.49-5.58,0,0-2.15-2.88-18.71,4.42,0,0-23.31,8.42-16.01,32.27Z"/>
      <path class="cls-7" d="m135.03.56s-2.15-2.88-18.71,4.42c0,0-23.31,8.42-16.01,32.27,0,0-2.4-20.9,26.82-32.02,0,0-5.78,9.57-10.69,21.43,0,0-12.88,32.8-13.62,34.88,0,0-.05.19-.15.53,4.67-2.79,9.35-5.8,11.65-7.3l5.74-15.44s5.98-20.52,14.48-33.19c0,0,3.8-3.68.49-5.58Z"/>
      <path class="cls-8" d="m99.64,71.51c-5.21,15.12-16.26,42.37-28.96,44.99,0,0-14.94,3.31-10.43-8.59,0,0,.41-1.38,1.74-3.77l-4.79-4.79c-2.49,5.53-5.51,15.86,3.29,21.44,0,0,13.01,7.97,29.32-12.27,0,0,7.36-10.12,19.81-41.16l.72-1.93c-4.39,2.74-7.65,4.44-7.65,4.44-1.05.54-2.07,1.09-3.06,1.63Z"/>
      <path class="cls-3" d="m132.93,35.21c0,.11,0,.22,0,.33.01-.22,0-.33,0-.33Z"/>
      <path class="cls-2" d="m122.49,54.46s10.43-9.54,10.44-18.92c-.02.44-.16,1.32-.72,2.72,0,0,.89-3.33-.25-5.4,0,0,.78,1.79-.13,4.29,0,0,.36-1.99-.02-2.45,0,0,.21,4.57-6.72,11.75,0,0,2.09-2.45,2.88-4.54,0,0-2.54,4.78-12.19,11.9,0,0-.54.36-1.47.96-2.3,1.5-6.98,4.51-11.65,7.3-2.53,1.51-5.05,2.96-7.19,4.07,0,0-27.52,14.59-36.07,29.04-.09.16-.18.31-.27.47,0,0-.93,1.46-1.94,3.71l4.79,4.79c.61-1.1,1.42-2.42,2.47-3.92,4.87-6.93,14.96-17.69,35.18-28.71,1-.54,2.02-1.09,3.06-1.63,0,0,3.26-1.7,7.65-4.44,8.88-5.54,22.37-15.32,22.78-23.77,0,0-3.27,7.16-10.63,12.8Z"/>
      <g>
        <path class="cls-6" d="m212.21,41.49c.41-.72.96-1.29,1.67-1.69.7-.41,1.49-.61,2.35-.61,1.01,0,1.89.24,2.64.73.75.49,1.3,1.18,1.65,2.07h-1.45c-.26-.56-.63-.99-1.11-1.29-.48-.3-1.06-.45-1.73-.45s-1.23.15-1.74.45c-.51.3-.92.73-1.21,1.28-.29.55-.44,1.2-.44,1.95s.15,1.38.44,1.93c.29.55.7.98,1.21,1.28.51.3,1.09.45,1.74.45s1.25-.15,1.73-.45c.48-.3.85-.72,1.11-1.28h1.45c-.35.89-.89,1.57-1.65,2.05-.75.48-1.63.72-2.64.72-.86,0-1.64-.2-2.35-.6-.7-.4-1.26-.96-1.67-1.68-.41-.72-.61-1.53-.61-2.43s.2-1.72.61-2.44Z"/>
        <path class="cls-6" d="m223.63,48.22c-.55-.31-.99-.75-1.3-1.32-.31-.57-.47-1.23-.47-1.99s.16-1.4.48-1.97c.32-.57.76-1.01,1.32-1.32.56-.31,1.18-.46,1.87-.46s1.32.15,1.87.46c.56.31,1,.74,1.32,1.31.32.57.48,1.23.48,1.98s-.17,1.42-.5,1.99c-.33.57-.78,1.01-1.35,1.32-.57.31-1.2.47-1.89.47s-1.3-.15-1.85-.47Zm3.08-.9c.38-.2.69-.51.92-.92.23-.41.35-.9.35-1.49s-.12-1.08-.35-1.49c-.23-.41-.53-.71-.9-.91s-.78-.3-1.21-.3-.85.1-1.22.3c-.37.2-.66.5-.88.91s-.33.9-.33,1.49.11,1.09.33,1.5c.22.41.51.71.87.91.36.2.76.3,1.2.3s.84-.1,1.22-.31Z"/>
        <path class="cls-6" d="m236.52,41.95c.55.54.82,1.31.82,2.32v4.29h-1.2v-4.12c0-.73-.18-1.28-.55-1.67-.36-.39-.86-.58-1.49-.58s-1.15.2-1.52.6c-.38.4-.56.98-.56,1.74v4.03h-1.21v-7.28h1.21v1.04c.24-.37.56-.66.98-.86.41-.2.87-.31,1.36-.31.89,0,1.6.27,2.15.8Z"/>
        <path class="cls-6" d="m240.4,48.4c-.44-.19-.79-.46-1.05-.8-.26-.34-.4-.73-.43-1.18h1.25c.04.36.21.66.51.89.31.23.71.35,1.2.35.46,0,.82-.1,1.09-.31s.4-.46.4-.77-.14-.56-.43-.71c-.28-.15-.72-.31-1.32-.46-.54-.14-.98-.29-1.32-.43-.34-.15-.63-.36-.88-.65-.24-.29-.37-.67-.37-1.14,0-.37.11-.71.33-1.02.22-.31.54-.56.94-.74.41-.18.87-.27,1.4-.27.81,0,1.46.2,1.95.61.5.41.76.97.8,1.67h-1.21c-.03-.38-.18-.69-.46-.92-.28-.23-.65-.35-1.12-.35-.43,0-.78.09-1.04.28-.26.19-.39.43-.39.73,0,.24.08.44.23.59.15.15.35.28.58.37.23.09.56.2.98.31.52.14.95.28,1.28.42.33.14.61.34.84.62.23.27.36.63.37,1.08,0,.4-.11.76-.33,1.08-.22.32-.53.57-.94.75-.4.18-.87.27-1.39.27-.56,0-1.06-.1-1.5-.29Z"/>
        <path class="cls-6" d="m252.72,41.28v7.28h-1.21v-1.08c-.23.37-.55.66-.96.87-.41.21-.87.31-1.36.31-.57,0-1.08-.12-1.53-.35-.45-.23-.81-.59-1.07-1.06-.26-.47-.39-1.04-.39-1.71v-4.27h1.2v4.11c0,.72.18,1.27.55,1.65.36.39.86.58,1.49.58s1.16-.2,1.53-.6.56-.98.56-1.74v-4h1.21Z"/>
        <path class="cls-6" d="m255.97,38.73v9.83h-1.21v-9.83h1.21Z"/>
        <path class="cls-6" d="m259.51,42.28v4.29c0,.35.08.6.23.75.15.15.41.22.78.22h.89v1.02h-1.09c-.67,0-1.18-.15-1.51-.47-.34-.31-.51-.82-.51-1.53v-4.29h-.94v-1h.94v-1.83h1.21v1.83h1.9v1h-1.9Z"/>
        <path class="cls-6" d="m262.87,42.94c.3-.56.72-1,1.24-1.31.53-.31,1.11-.47,1.76-.47s1.19.14,1.66.41c.47.27.82.62,1.05,1.04v-1.33h1.22v7.28h-1.22v-1.36c-.24.43-.6.78-1.07,1.06-.47.28-1.03.42-1.65.42s-1.23-.16-1.75-.48c-.52-.32-.93-.77-1.24-1.34-.3-.58-.45-1.23-.45-1.97s.15-1.4.45-1.96Zm5.38.54c-.22-.41-.52-.72-.9-.94-.38-.22-.79-.33-1.24-.33s-.86.11-1.24.32c-.37.21-.67.52-.89.93-.22.41-.33.89-.33,1.44s.11,1.04.33,1.46.52.73.89.94c.37.22.78.33,1.24.33s.87-.11,1.24-.33c.38-.22.68-.53.9-.94s.33-.89.33-1.44-.11-1.03-.33-1.44Z"/>
        <path class="cls-6" d="m277.55,41.95c.55.54.82,1.31.82,2.32v4.29h-1.2v-4.12c0-.73-.18-1.28-.55-1.67-.36-.39-.86-.58-1.49-.58s-1.15.2-1.52.6c-.38.4-.56.98-.56,1.74v4.03h-1.21v-7.28h1.21v1.04c.24-.37.56-.66.98-.86.41-.2.87-.31,1.36-.31.89,0,1.6.27,2.15.8Z"/>
        <path class="cls-6" d="m281.83,42.28v4.29c0,.35.08.6.23.75.15.15.41.22.78.22h.89v1.02h-1.09c-.67,0-1.18-.15-1.51-.47-.34-.31-.51-.82-.51-1.53v-4.29h-.94v-1h.94v-1.83h1.21v1.83h1.9v1h-1.9Z"/>
        <path class="cls-6" d="m217.61,60.15c.28.22.5.5.66.82.16.33.25.68.25,1.05,0,.47-.12.89-.36,1.27-.24.38-.59.67-1.04.89s-.99.33-1.61.33h-3.46v-9.26h3.32c.63,0,1.16.1,1.61.31.44.21.78.49,1,.84.22.35.33.75.33,1.2,0,.55-.15,1-.45,1.36s-.69.62-1.18.78c.34.05.64.19.92.41Zm-4.35-.9h2.03c.57,0,1.01-.13,1.32-.4.31-.27.47-.63.47-1.1s-.16-.84-.47-1.1c-.31-.27-.76-.4-1.34-.4h-2.01v3Zm3.55,3.84c.34-.28.51-.68.51-1.18s-.18-.92-.53-1.22c-.35-.3-.83-.45-1.42-.45h-2.1v3.27h2.14c.6,0,1.07-.14,1.41-.43Z"/>
        <path class="cls-6" d="m222.32,57.44c.39-.23.87-.35,1.44-.35v1.25h-.32c-1.36,0-2.03.74-2.03,2.21v3.96h-1.21v-7.28h1.21v1.18c.21-.42.52-.74.91-.97Z"/>
        <path class="cls-6" d="m231.76,61.32h-5.82c.04.72.29,1.28.74,1.68.45.4.99.6,1.63.6.52,0,.96-.12,1.31-.37.35-.24.6-.57.74-.98h1.3c-.19.7-.58,1.27-1.17,1.71-.58.44-1.31.66-2.18.66-.69,0-1.31-.15-1.85-.47-.54-.31-.97-.75-1.28-1.32-.31-.57-.47-1.23-.47-1.99s.15-1.41.45-1.98c.3-.57.72-1,1.27-1.31.54-.31,1.17-.46,1.88-.46s1.3.15,1.83.45c.53.3.94.72,1.23,1.24s.43,1.12.43,1.79c0,.23-.01.47-.04.73Zm-1.51-2.17c-.2-.33-.48-.58-.83-.76-.35-.17-.74-.26-1.16-.26-.61,0-1.13.19-1.56.58-.43.39-.68.93-.74,1.62h4.6c0-.46-.1-.86-.31-1.19Z"/>
        <path class="cls-6" d="m233.39,58.88c.3-.56.72-1,1.24-1.31.53-.31,1.11-.47,1.76-.47s1.19.14,1.66.41c.47.27.82.62,1.05,1.04v-1.33h1.22v7.28h-1.22v-1.36c-.24.43-.6.78-1.07,1.06-.47.28-1.03.42-1.65.42s-1.23-.16-1.75-.48c-.52-.32-.93-.77-1.24-1.34-.3-.58-.45-1.23-.45-1.97s.15-1.4.45-1.96Zm5.38.54c-.22-.41-.52-.72-.9-.94-.38-.22-.79-.33-1.24-.33s-.86.11-1.24.32c-.37.21-.67.52-.89.93-.22.41-.33.89-.33,1.44s.11,1.04.33,1.46.52.73.89.94c.37.22.78.33,1.24.33s.87-.11,1.24-.33c.38-.22.68-.53.9-.94s.33-.89.33-1.44-.11-1.03-.33-1.44Z"/>
        <path class="cls-6" d="m243.45,64.35c-.44-.19-.79-.46-1.05-.8-.26-.34-.4-.73-.43-1.18h1.25c.04.36.21.66.51.89.31.23.71.35,1.2.35.46,0,.82-.1,1.09-.31s.4-.46.4-.77-.14-.56-.43-.71c-.28-.15-.72-.31-1.32-.46-.54-.14-.98-.29-1.32-.43-.34-.15-.63-.36-.88-.65-.24-.29-.37-.67-.37-1.14,0-.37.11-.71.33-1.02.22-.31.54-.56.94-.74.41-.18.87-.27,1.4-.27.81,0,1.46.2,1.95.61.5.41.76.97.8,1.67h-1.21c-.03-.38-.18-.69-.46-.92-.28-.23-.65-.35-1.12-.35-.43,0-.78.09-1.04.28-.26.19-.39.43-.39.73,0,.24.08.44.23.59.15.15.35.28.58.37.23.09.56.2.98.31.52.14.95.28,1.28.42.33.14.61.34.84.62.23.27.36.63.37,1.08,0,.4-.11.76-.33,1.08-.22.32-.53.57-.94.75-.4.18-.87.27-1.39.27-.56,0-1.06-.1-1.5-.29Z"/>
        <path class="cls-6" d="m250.79,58.23v4.29c0,.35.08.6.23.75.15.15.41.22.78.22h.89v1.02h-1.09c-.67,0-1.18-.15-1.51-.47-.34-.31-.51-.82-.51-1.53v-4.29h-.94v-1h.94v-1.83h1.21v1.83h1.9v1h-1.9Z"/>
        <path class="cls-6" d="m264.81,64.51l-1.21-1.22c-.45.47-.93.82-1.45,1.04-.51.23-1.09.34-1.74.34s-1.2-.12-1.69-.35c-.49-.23-.87-.56-1.14-.98-.27-.43-.41-.92-.41-1.49,0-.65.18-1.22.55-1.71.37-.49.91-.88,1.63-1.16-.28-.34-.49-.65-.61-.93-.12-.28-.19-.59-.19-.93,0-.39.1-.74.3-1.06.2-.31.49-.56.86-.74.37-.18.8-.27,1.29-.27s.89.09,1.25.28c.35.19.62.45.8.78.18.33.26.7.24,1.11h-1.21c0-.36-.09-.65-.31-.86-.21-.21-.49-.31-.82-.31-.35,0-.64.1-.86.3-.22.2-.33.45-.33.76,0,.27.07.52.22.77.15.25.39.55.74.92l2.76,2.78.24-.37.9-1.51h1.3l-1.09,1.89c-.15.27-.33.54-.53.84l2.09,2.09h-1.58Zm-3.1-1.16c.39-.19.75-.47,1.1-.86l-2.72-2.74c-1.13.43-1.7,1.12-1.7,2.06,0,.52.19.96.56,1.3.38.35.87.52,1.47.52.48,0,.91-.09,1.3-.28Z"/>
        <path class="cls-6" d="m217.45,75.83c-.53.51-1.33.76-2.41.76h-1.78v3.87h-1.21v-9.26h2.99c1.05,0,1.84.25,2.39.76s.82,1.16.82,1.95-.26,1.41-.79,1.92Zm-.92-.67c.32-.29.48-.71.48-1.25,0-1.14-.66-1.71-1.97-1.71h-1.78v3.4h1.78c.67,0,1.17-.15,1.49-.44Z"/>
        <path class="cls-6" d="m220.96,70.62v9.83h-1.21v-9.83h1.21Z"/>
        <path class="cls-6" d="m223.02,74.83c.3-.56.72-1,1.24-1.31.53-.31,1.11-.47,1.76-.47s1.19.14,1.66.41c.47.27.82.62,1.05,1.04v-1.33h1.22v7.28h-1.22v-1.36c-.24.43-.6.78-1.07,1.06-.47.28-1.03.42-1.65.42s-1.23-.16-1.75-.48c-.52-.32-.93-.77-1.24-1.34-.3-.58-.45-1.23-.45-1.97s.15-1.4.45-1.96Zm5.38.54c-.22-.41-.52-.72-.9-.94-.38-.22-.79-.33-1.24-.33s-.86.11-1.24.32c-.37.21-.67.52-.89.93-.22.41-.33.89-.33,1.44s.11,1.04.33,1.46.52.73.89.94c.37.22.78.33,1.24.33s.87-.11,1.24-.33c.38-.22.68-.53.9-.94s.33-.89.33-1.44-.11-1.03-.33-1.44Z"/>
        <path class="cls-6" d="m233.07,80.29c-.44-.19-.79-.46-1.05-.8-.26-.34-.4-.73-.43-1.18h1.25c.04.36.21.66.51.89.31.23.71.35,1.2.35.46,0,.82-.1,1.09-.31s.4-.46.4-.77-.14-.56-.43-.71c-.28-.15-.72-.31-1.32-.46-.54-.14-.98-.29-1.32-.43-.34-.15-.63-.36-.88-.65-.24-.29-.37-.67-.37-1.14,0-.37.11-.71.33-1.02.22-.31.54-.56.94-.74.41-.18.87-.27,1.4-.27.81,0,1.46.2,1.95.61.5.41.76.97.8,1.67h-1.21c-.03-.38-.18-.69-.46-.92-.28-.23-.65-.35-1.12-.35-.43,0-.78.09-1.04.28-.26.19-.39.43-.39.73,0,.24.08.44.23.59.15.15.35.28.58.37.23.09.56.2.98.31.52.14.95.28,1.28.42.33.14.61.34.84.62.23.27.36.63.37,1.08,0,.4-.11.76-.33,1.08-.22.32-.53.57-.94.75-.4.18-.87.27-1.39.27-.56,0-1.06-.1-1.5-.29Z"/>
        <path class="cls-6" d="m240.41,74.17v4.29c0,.35.08.6.23.75.15.15.41.22.78.22h.89v1.02h-1.09c-.67,0-1.18-.15-1.51-.47-.34-.31-.51-.82-.51-1.53v-4.29h-.94v-1h.94v-1.83h1.21v1.83h1.9v1h-1.9Z"/>
        <path class="cls-6" d="m243.81,71.75c-.16-.16-.24-.35-.24-.58s.08-.43.24-.58c.16-.16.35-.24.58-.24s.41.08.56.24c.15.16.23.35.23.58s-.08.43-.23.58c-.16.16-.34.24-.56.24s-.43-.08-.58-.24Zm1.17,1.42v7.28h-1.21v-7.28h1.21Z"/>
        <path class="cls-6" d="m247.04,74.83c.3-.56.72-1,1.26-1.31.54-.31,1.15-.47,1.84-.47.89,0,1.63.22,2.21.65.58.43.96,1.04,1.15,1.81h-1.3c-.12-.44-.37-.79-.72-1.05-.36-.26-.8-.39-1.34-.39-.69,0-1.25.24-1.67.71-.43.47-.64,1.15-.64,2.01s.21,1.55.64,2.03c.43.48.98.72,1.67.72.53,0,.97-.12,1.33-.37.35-.25.6-.6.73-1.06h1.3c-.2.74-.58,1.34-1.17,1.79-.58.45-1.32.67-2.19.67-.69,0-1.3-.15-1.84-.47-.54-.31-.95-.75-1.26-1.32-.3-.57-.45-1.23-.45-1.99s.15-1.41.45-1.97Z"/>
        <path class="cls-6" d="m259.95,80.23c-.48-.22-.86-.52-1.14-.9-.27-.39-.42-.83-.43-1.34h1.29c.04.43.22.8.54,1.1.31.3.77.45,1.38.45s1.03-.14,1.36-.43c.33-.29.5-.66.5-1.11,0-.35-.1-.64-.29-.86s-.44-.39-.73-.51c-.29-.11-.69-.24-1.18-.37-.61-.16-1.1-.32-1.47-.48-.37-.16-.68-.41-.94-.75-.26-.34-.39-.8-.39-1.38,0-.5.13-.95.39-1.34.26-.39.62-.69,1.08-.9.47-.21,1-.32,1.6-.32.87,0,1.58.22,2.13.65.55.43.87,1.01.94,1.73h-1.33c-.04-.35-.23-.67-.56-.94-.33-.27-.76-.41-1.3-.41-.51,0-.92.13-1.24.39s-.48.63-.48,1.1c0,.34.09.61.29.82.19.21.43.37.7.49.28.11.67.24,1.18.38.61.17,1.1.33,1.48.5.37.16.69.42.96.76s.4.8.4,1.39c0,.45-.12.88-.36,1.28-.24.4-.59.72-1.06.97-.47.25-1.02.37-1.66.37s-1.16-.11-1.64-.33Z"/>
        <path class="cls-6" d="m272.91,73.18v7.28h-1.21v-1.08c-.23.37-.55.66-.96.87-.41.21-.87.31-1.36.31-.57,0-1.08-.12-1.53-.35-.45-.23-.81-.59-1.07-1.06-.26-.47-.39-1.04-.39-1.71v-4.27h1.2v4.11c0,.72.18,1.27.55,1.65.36.39.86.58,1.49.58s1.16-.2,1.53-.6.56-.98.56-1.74v-4h1.21Z"/>
        <path class="cls-6" d="m277.08,73.39c.39-.23.87-.35,1.44-.35v1.25h-.32c-1.36,0-2.03.74-2.03,2.21v3.96h-1.21v-7.28h1.21v1.18c.21-.42.52-.74.91-.97Z"/>
        <path class="cls-6" d="m284.57,73.47c.47.27.83.62,1.06,1.04v-1.33h1.22v7.44c0,.66-.14,1.26-.43,1.77-.28.52-.69.92-1.22,1.22-.53.29-1.14.44-1.84.44-.96,0-1.75-.23-2.39-.68-.64-.45-1.01-1.07-1.13-1.85h1.2c.13.44.41.8.82,1.07.42.27.92.41,1.5.41.66,0,1.21-.21,1.63-.62.42-.42.63-1,.63-1.75v-1.53c-.24.43-.59.78-1.06,1.06-.47.28-1.02.43-1.65.43s-1.23-.16-1.76-.48c-.53-.32-.94-.77-1.24-1.34-.3-.58-.45-1.23-.45-1.97s.15-1.4.45-1.96c.3-.56.72-1,1.24-1.31.53-.31,1.11-.47,1.76-.47s1.18.14,1.65.41Zm.72,1.9c-.22-.41-.52-.72-.9-.94-.38-.22-.79-.33-1.24-.33s-.86.11-1.24.32c-.37.21-.67.52-.89.93-.22.41-.33.89-.33,1.44s.11,1.04.33,1.46.52.73.89.94c.37.22.78.33,1.24.33s.87-.11,1.24-.33c.38-.22.68-.53.9-.94s.33-.89.33-1.44-.11-1.03-.33-1.44Z"/>
        <path class="cls-6" d="m295.5,77.27h-5.82c.04.72.29,1.28.74,1.68.45.4.99.6,1.63.6.52,0,.96-.12,1.31-.37.35-.24.6-.57.74-.98h1.3c-.19.7-.58,1.27-1.17,1.71-.58.44-1.31.66-2.18.66-.69,0-1.31-.15-1.85-.47-.54-.31-.97-.75-1.28-1.32-.31-.57-.47-1.23-.47-1.99s.15-1.41.45-1.98c.3-.57.72-1,1.27-1.31.54-.31,1.17-.46,1.88-.46s1.3.15,1.83.45c.53.3.94.72,1.23,1.24s.43,1.12.43,1.79c0,.23-.01.47-.04.73Zm-1.51-2.17c-.2-.33-.48-.58-.83-.76-.35-.17-.74-.26-1.16-.26-.61,0-1.13.19-1.56.58-.43.39-.68.93-.74,1.62h4.6c0-.46-.1-.86-.31-1.19Z"/>
        <path class="cls-6" d="m298.46,80.11c-.55-.31-.99-.75-1.3-1.32-.31-.57-.47-1.23-.47-1.99s.16-1.4.48-1.97c.32-.57.76-1.01,1.32-1.32.56-.31,1.18-.46,1.87-.46s1.32.15,1.87.46c.56.31,1,.74,1.32,1.31.32.57.48,1.23.48,1.98s-.17,1.42-.5,1.99c-.33.57-.78,1.01-1.35,1.32-.57.31-1.2.47-1.89.47s-1.3-.15-1.85-.47Zm3.08-.9c.38-.2.69-.51.92-.92.23-.41.35-.9.35-1.49s-.12-1.08-.35-1.49c-.23-.41-.53-.71-.9-.91s-.78-.3-1.21-.3-.85.1-1.22.3c-.37.2-.66.5-.88.91s-.33.9-.33,1.49.11,1.09.33,1.5c.22.41.51.71.87.91.36.2.76.3,1.2.3s.84-.1,1.22-.31Z"/>
        <path class="cls-6" d="m311.34,73.85c.55.54.82,1.31.82,2.32v4.29h-1.2v-4.12c0-.73-.18-1.28-.55-1.67-.36-.39-.86-.58-1.49-.58s-1.15.2-1.52.6c-.38.4-.56.98-.56,1.74v4.03h-1.21v-7.28h1.21v1.04c.24-.37.56-.66.98-.86.41-.2.87-.31,1.36-.31.89,0,1.6.27,2.15.8Z"/>
      </g>
    </g>
  </g>
</svg>