<?xml version="1.0" encoding="UTF-8"?>
<svg id="Layer_2" data-name="Layer 2" xmlns="http://www.w3.org/2000/svg" xmlns:xlink="http://www.w3.org/1999/xlink" viewBox="0 0 81.77 122.35">
  <defs>
    <style>
      .cls-1 {
        fill: url(#linear-gradient);
      }

      .cls-1, .cls-2, .cls-3, .cls-4, .cls-5, .cls-6 {
        stroke-width: 0px;
      }

      .cls-2 {
        fill: url(#linear-gradient-6);
      }

      .cls-3 {
        fill: url(#linear-gradient-5);
      }

      .cls-4 {
        fill: url(#linear-gradient-2);
      }

      .cls-5 {
        fill: url(#linear-gradient-3);
      }

      .cls-6 {
        fill: url(#linear-gradient-4);
      }
    </style>
    <linearGradient id="linear-gradient" x1="37.34" y1="62.53" x2="73.51" y2="62.53" gradientUnits="userSpaceOnUse">
      <stop offset="0" stop-color="#b74c63"/>
      <stop offset=".46" stop-color="#db748a"/>
      <stop offset="1" stop-color="#555"/>
    </linearGradient>
    <linearGradient id="linear-gradient-2" x1="38.41" y1="76.52" x2="8.05" y2="152.45" gradientUnits="userSpaceOnUse">
      <stop offset="0" stop-color="#b74c63"/>
      <stop offset=".46" stop-color="#db748a"/>
      <stop offset="1" stop-color="#736469"/>
    </linearGradient>
    <linearGradient id="linear-gradient-3" x1="72.78" y1="-10.87" x2="42.43" y2="65.06" gradientUnits="userSpaceOnUse">
      <stop offset=".11" stop-color="#b74c63"/>
      <stop offset=".54" stop-color="#db748a"/>
      <stop offset="1" stop-color="#736469"/>
    </linearGradient>
    <linearGradient id="linear-gradient-4" x1="11.17" y1="123.83" x2="44.05" y2="48.96" gradientUnits="userSpaceOnUse">
      <stop offset="0" stop-color="#565759"/>
      <stop offset=".24" stop-color="#716368"/>
      <stop offset=".27" stop-color="#746369"/>
      <stop offset=".6" stop-color="#956974"/>
      <stop offset="1" stop-color="#545654"/>
    </linearGradient>
    <linearGradient id="linear-gradient-5" x1="93.49" y1="-2.59" x2="63.14" y2="73.34" xlink:href="#linear-gradient-2"/>
    <linearGradient id="linear-gradient-6" x1="15.78" y1="87.23" x2="77.85" y2="43.5" gradientUnits="userSpaceOnUse">
      <stop offset="0" stop-color="#716368"/>
      <stop offset=".36" stop-color="#b97181"/>
      <stop offset=".55" stop-color="#da788d"/>
    </linearGradient>
  </defs>
  <g id="Layer_1-2" data-name="Layer 1">
    <g>
      <path class="cls-1" d="m46.61,15.47s-11.16,12.94,2.58,36.75c0,0,9.82,16.56,17.7,26.96,0,0,3.2,4,4.59,7.02,0,0-1.63-2.37-1.93-2.62,0,0,2.49,4.21,3.35,5.99,0,0-1.9-2.98-2.39-3.28,0,0,2.45,3.34,3.01,8.74,0,0-4.78-9.14-6.53-10.52,0,0,8.18,11.95,6.22,21.03,0,0-.04-5.07-1.02-6.34,0,0,.98,7.24-.33,10.39,0,0-.7-10.94-10.57-24.56,0,0-12.53-17.4-19.41-29.34,0,0-12.86-22.43,4.74-40.22Z"/>
      <path class="cls-4" d="m45.69,37.25s-2.4-20.9,26.82-32.02c0,0-5.78,9.57-10.69,21.43,0,0-12.88,32.8-13.62,34.88,0,0-14.48,51.31-32.14,54.96,0,0-14.94,3.31-10.43-8.59,0,0,5.64-18.89,42.45-38.03,0,0,29.81-15.58,30.43-28.22,0,0-3.27,7.16-10.63,12.8,0,0,10.68-9.77,10.43-19.26,0,0,.14.94-.72,3.05,0,0,.89-3.33-.25-5.4,0,0,.78,1.79-.13,4.29,0,0,.36-1.99-.02-2.45,0,0,.21,4.57-6.72,11.75,0,0,2.09-2.45,2.88-4.54,0,0-2.54,4.78-12.19,11.9,0,0-12.62,8.34-20.31,12.33,0,0-28.12,14.91-36.34,29.51,0,0-11.04,17.3,1.35,25.15,0,0,13.01,7.97,29.32-12.27,0,0,7.36-10.12,19.81-41.16l10.43-28.03s5.98-20.52,14.48-33.19c0,0,3.8-3.68.49-5.58,0,0-2.15-2.88-18.71,4.42,0,0-23.31,8.42-16.01,32.27Z"/>
      <path class="cls-5" d="m80.41.56s-2.15-2.88-18.71,4.42c0,0-23.31,8.42-16.01,32.27,0,0-2.4-20.9,26.82-32.02,0,0-5.78,9.57-10.69,21.43,0,0-12.88,32.8-13.62,34.88,0,0-.05.19-.15.53,4.67-2.79,9.35-5.8,11.65-7.3l5.74-15.44s5.98-20.52,14.48-33.19c0,0,3.8-3.68.49-5.58Z"/>
      <path class="cls-6" d="m45.02,71.51c-5.21,15.12-16.26,42.37-28.96,44.99,0,0-14.94,3.31-10.43-8.59,0,0,.41-1.38,1.74-3.77l-4.79-4.79c-2.49,5.53-5.51,15.86,3.29,21.44,0,0,13.01,7.97,29.32-12.27,0,0,7.36-10.12,19.81-41.16l.72-1.93c-4.39,2.74-7.65,4.44-7.65,4.44-1.05.54-2.07,1.09-3.06,1.63Z"/>
      <path class="cls-3" d="m78.31,35.21c0,.11,0,.22,0,.33.01-.22,0-.33,0-.33Z"/>
      <path class="cls-2" d="m67.88,54.46s10.43-9.54,10.44-18.92c-.02.44-.16,1.32-.72,2.72,0,0,.89-3.33-.25-5.4,0,0,.78,1.79-.13,4.29,0,0,.36-1.99-.02-2.45,0,0,.21,4.57-6.72,11.75,0,0,2.09-2.45,2.88-4.54,0,0-2.54,4.78-12.19,11.9,0,0-.54.36-1.47.96-2.3,1.5-6.98,4.51-11.65,7.3-2.53,1.51-5.05,2.96-7.19,4.07,0,0-27.52,14.59-36.07,29.04-.09.16-.18.31-.27.47,0,0-.93,1.45-1.94,3.71l4.79,4.79c.61-1.1,1.42-2.42,2.47-3.92,4.87-6.93,14.96-17.69,35.18-28.71,1-.54,2.02-1.09,3.06-1.63,0,0,3.26-1.7,7.65-4.44,8.88-5.54,22.37-15.32,22.78-23.77,0,0-3.27,7.16-10.63,12.8Z"/>
    </g>
  </g>
</svg>